<svg xmlns="http://www.w3.org/2000/svg" viewBox="0 0 178.86 181.95"><g id="Layer_2" data-name="Layer 2"><g id="Layer_1-2" data-name="Layer 1"><path d="M60.59,19.7c-16.29,3.72-31.66,11-42.86,23.62-8.61,9.74-13.35,22.22-14.87,35-2.74,22.9,2.77,48.5,16.48,67.25,6.94,9.49,17.31,15.6,28,20.16a106.52,106.52,0,0,0,43,8.14c27.19-.31,56-11,72.27-33.63,17.95-24.95,13.25-59.14.57-85.26C149.47,26.81,120.84,9,89.78,7.47,59.28,6,30,21.19,14.41,47.55-3,77.11,1.36,112.8,21.17,140c19.57,26.85,54.74,47.77,88.78,40.51,18.1-3.86,33.94-17.38,45.93-30.89a89.82,89.82,0,0,0,21.28-41.76c5.56-27.56-2.8-56.51-21.31-77.44C136.89,9,108.22-3,79.63.66c-30,3.86-58.57,25.9-72.29,52.62-9.9,19.3-9.65,43.31-.07,62.68,19.21,38.86,72.1,62.37,113.65,49.7,28.61-8.72,43.94-34.59,49.53-62.55a12.7,12.7,0,0,0,0-3.59c0-.19-.26-2-.47-.94-5,25-18.9,48.33-43.14,58.55-20.69,8.74-44.62,6.47-65.24-1.25-21-7.85-40.36-22.22-51.9-41.62C4.57,105.57.54,95,.78,84.75c.27-12,5.08-23.49,11.55-33.37C29.62,25,60.17,5.71,92.15,6.15c29,.4,56,17.06,71.92,40.89,8,12,13.38,26.37,13.9,40.82.58,15.92-5.31,31.7-13.93,44.85-10.18,15.53-25.95,30.22-42.91,38-15.34,7-32.91,6.35-48.71,1.29-33.14-10.62-62.9-41.73-68-76.72C1.79,77.28,9.8,58.06,20.5,43.9A79.68,79.68,0,0,1,56.73,17.56C85.05,7.16,118,13,141.28,32c13.55,11.08,22.36,26.24,27.89,42.66s6.36,33.68-.55,49.83c-11.21,26.21-39.21,40.41-66.23,44a108.89,108.89,0,0,1-43.55-3c-12.44-3.46-25.85-9.46-35-18.79C7.6,130.25.48,102.43,3.34,80A67.55,67.55,0,0,1,19.48,43.64c10.6-12,25.85-18.76,41.14-22.43.21-.05,0-1.51,0-1.51Z"/><path d="M126.66,89.27a2,2,0,0,1,0,3.4l-26.18,15.12L74.3,122.91a2,2,0,0,1-3-1.7V60.74a2,2,0,0,1,3-1.7l26.18,15.12Z"/></g></g></svg>