<?xml version="1.0" encoding="utf-8"?>
<!-- Generator: Adobe Illustrator 26.0.1, SVG Export Plug-In . SVG Version: 6.00 Build 0)  -->
<svg version="1.1" id="Layer_1" xmlns="http://www.w3.org/2000/svg" xmlns:xlink="http://www.w3.org/1999/xlink" x="0px" y="0px"
	 viewBox="0 0 2500 2500" style="enable-background:new 0 0 2500 2500;" xml:space="preserve">
<style type="text/css">
	.st0{fill-rule:evenodd;clip-rule:evenodd;fill:none;}
	.st1{fill:#FFFFFF;}
</style>
<path class="st0" d="M6.7,7.3h2500v2500H6.7V7.3z"/>
<g>
	<path class="st1" d="M2147.9,1035.2v-99.7h-338.7l-552-245.2l-553,245.2H365.5v99.7H191.9v652.6h2129.7v-652.6H2147.9z
		 M2301.4,1667.6H212.1v-612.2h173.6v-99.7h322.8l548.7-243.3L1805,955.7h322.8v99.7h173.6V1667.6z"/>
	<path class="st1" d="M1324,1526.3c-7.2,0-10.3,5.3-11.3,11.7h21.6C1334.3,1532.7,1331.2,1526.3,1324,1526.3z"/>
	<path class="st1" d="M1177.1,1526.3c-7.2,0-10.3,5.3-11.3,11.7h21.6C1186.4,1532.7,1184.3,1526.3,1177.1,1526.3z"/>
	<path class="st1" d="M2064.7,1133c0-3.2-3.1-4.2-6.2-4.2h-7.2v9.5h6.2C2061.7,1138.3,2064.7,1138.3,2064.7,1133z"/>
	<path class="st1" d="M1064.1,1527.4c-9.2,0-13.3,8.5-13.3,17s4.1,17,13.3,17c9.2,0,12.3-8.5,12.3-17S1073.4,1527.4,1064.1,1527.4z"
		/>
	<path class="st1" d="M1701.1,1526.3c-7.2,0-11.3,5.3-11.3,11.7h21.6C1710.3,1532.7,1708.3,1526.3,1701.1,1526.3z"/>
	<path class="st1" d="M1994.9,1526.3c-7.2,0-10.3,5.3-11.3,11.7h21.6C2005.2,1532.7,2002.1,1526.3,1994.9,1526.3z"/>
	<path class="st1" d="M1593.2,1556c0,3.2,3.1,6.4,8.2,6.4c7.2,0,11.3-5.3,11.3-13.8v-4.2h0C1604.5,1549.7,1593.2,1546.5,1593.2,1556
		z"/>
	<path class="st1" d="M1892.1,1563.5L1892.1,1563.5C1892.1,1563.5,1892.1,1563.5,1892.1,1563.5L1892.1,1563.5z"/>
	<path class="st1" d="M1807.9,1544.4c0,8.5,4.1,17,13.4,17c9.2,0,12.3-8.5,12.3-17s-3.1-17-12.3-17
		C1812,1527.4,1807.9,1535.9,1807.9,1544.4z"/>
	<path class="st1" d="M2034.9,1140.4c0,13.8,10.3,23.3,22.6,23.3c12.3,0,21.6-9.5,21.6-23.3c0-12.7-9.2-23.3-21.6-23.3
		C2045.2,1117.1,2034.9,1127.7,2034.9,1140.4z M2069.9,1134c0,5.3-3.1,7.4-8.2,8.5l9.2,13.8h-5.1l-8.2-13.8h-6.2v13.8h0h-4.1v-31.8
		h11.3C2066.8,1124.5,2069.9,1127.7,2069.9,1134z"/>
	<path class="st1" d="M961.4,1561.3c7.2,0,12.3-7.4,12.3-17c0-9.6-4.1-17-12.3-17c-7.2,0-11.3,6.4-11.3,17
		C950.1,1555,954.2,1561.3,961.4,1561.3z"/>
	<polygon class="st1" points="853.5,1192.4 853.5,1377.9 932.6,1377.9 931.6,1192.4 	"/>
	<path class="st1" d="M582.3,1544.4c0,8.5,3.1,17,12.3,17s13.4-8.5,13.4-17s-4.1-17-13.4-17C585.4,1527.4,582.3,1535.9,582.3,1544.4
		z"/>
	<path class="st1" d="M742.6,1526.3c-8.2,0-11.3,5.3-11.3,11.7h21.6C751.8,1532.7,749.8,1526.3,742.6,1526.3z"/>
	<path class="st1" d="M2116.7,966.7h-314.1l-1.1-0.5l-544.3-241.8L710.9,966.7H396.7v99.7H223.1v590.2h2067.3v-590.2h-173.6V966.7z
		 M728.2,1377.9v80.6h-227v-417.8h89.4v337.2H728.2z M2085.3,1140.4c0,15.9-13.4,28.6-27.8,28.6c-15.4,0-27.7-12.7-27.7-28.6
		s12.3-27.6,27.7-27.6C2071.9,1112.8,2085.3,1124.5,2085.3,1140.4z M1995.9,1561.3c6.2,0,8.2-3.2,10.3-6.4h14.4
		c-3.1,8.5-9.2,19.1-24.6,19.1c-16.4,0-26.7-10.6-26.7-29.7c0-19.1,10.3-29.7,26.7-29.7c17.5,0,24.6,13.8,24.6,33.9h-37
		C1983.6,1556,1986.7,1561.3,1995.9,1561.3z M1984.6,1451.1c-54.4,45.6-196.2-3.2-196.2-3.2v-78.5c0,0,94.5,36,118.1,31.8
		c12.3-1,24.6-9.5,29.8-21.2c1-10.6,1-20.1-6.2-28.6c-45.2-33.9-105.8-39.2-137.7-95.4c-15.4-30.7-14.4-74.2,5.1-101.8
		c26.7-41.3,69.9-54.1,117.1-49.8c49.3,7.4,97.6,39.2,97.6,39.2l0,0v71c-15.4-5.3-33.9-15.9-48.3-20.1
		c-26.7-11.7-68.8-23.3-88.3-3.2c-6.2,5.3-7.2,12.7-7.2,21.2c4.1,23.3,30.8,26.5,46.2,38.2c42.1,18,98.6,47.7,103.8,100.7
		C2027.7,1390.6,2013.4,1426.7,1984.6,1451.1z M1914.7,1533.7c0-10.6,7.2-19.1,22.6-19.1c20.6,0,22.6,12.7,23.6,19.1h-14.4h0
		c0-2-0.8-3.8-2-5.3c-2-1.1-4.1-2.1-8.2-2.1s-8.2,2.1-8.2,4.3c0,11.6,33.9,2.1,33.9,24.4c0,11.6-9.2,19.1-23.6,19.1
		c-19.5,0-25.7-10.6-25.7-20.1h14.4c0,3.2,1,8.5,12.3,8.5c4.1,0,8.2-2.1,8.2-5.3C1947.6,1545.4,1914.7,1553.9,1914.7,1533.7z
		 M1875.7,1574c-12.3,0-18.5-8.5-18.5-20.1v-37.1h14.4v33.9c0,8.5,4.1,10.6,9.2,10.6s11.3-3.2,11.3-15.9v-28.6h14.4v55.1h-14.4v-8.4
		C1888,1571.9,1880.8,1574,1875.7,1574z M1849,1544.4c0,18-11.3,29.7-27.7,29.7c-16.4,0-27.7-11.7-27.7-29.7h0
		c0-19.1,11.3-29.7,27.7-29.7C1837.7,1514.7,1849,1525.3,1849,1544.4z M1760.7,1527.4c-5.1,0-10.3,3.2-10.3,15.9v28.6H1735v-76.3
		h15.4v28.6c3.1-7.4,10.3-9.5,15.4-9.5c12.3,0,19.5,7.4,19.5,20.1v37.1h-14.4V1538C1770.9,1529.5,1765.8,1527.4,1760.7,1527.4z
		 M1799.7,1140.4h-77.1v-99.7h77.1V1140.4z M1702.1,1561.3c6.2,0,8.2-3.2,9.2-6.4h14.4c-2,8.5-9.2,19.1-24.6,19.1
		c-16.4,0-26.7-10.6-26.7-29.7c0-19.1,11.3-29.7,26.7-29.7c17.5,0,24.6,13.8,24.6,33.9h-35.9
		C1689.8,1556,1691.8,1561.3,1702.1,1561.3z M1668.2,1514.7h3.1v15.9c-1-1.1-2-1.1-3.1-1.1c-11.3,0-13.3,7.4-13.3,14.9v27.6h-14.4
		v-55.1h13.3v8.5C1655.8,1523.2,1660,1514.7,1668.2,1514.7z M1488.4,1458.5V1115h212.7v77.4h-122.2v56.2h122.3l1,76.3h-123.3v53
		h122.3v80.6H1488.4z M1604.5,1526.3c-8.2,0-9.2,4.3-10.3,7.4h-13.3c0-7.4,4.1-19.1,23.6-19.1c15.4,0,22.6,6.4,22.6,18v27.6
		c0,6.4,1,8.5,3.1,9.5v2.1h-15.4v0h0c-1-2.1-1-5.3-2-6.4c-2,3.2-7.2,8.5-16.4,8.5c-11.3,0-17.5-6.4-17.5-18c0-18,18.5-17,28.8-19.1
		c4.1-1.1,5.1-1.1,5.1-5.3C1612.7,1528.5,1609.6,1526.3,1604.5,1526.3z M1559.3,1571.9h-14.4l-11.3-57.2h-1l-11.3,57.2h-13.4
		l-21.6-76.3h16.4l11.3,54.1h1l10.3-54.1h16.4l10.3,54.1l12.3-54.1h16.4L1559.3,1571.9z M1415.4,1527.4v-10.6h7.2v-15.9h14.4v15.9
		h8.2v10.6h-8.2v29.7c0,4.3,0,5.3,8.2,5.3v10.6h0c0,0,0,0,0,0v0h0c-2,1.1-4.1,1.1-6.2,1.1c-14.4,0-16.4-4.2-16.4-17v-29.7H1415.4z
		 M1297.3,1377.9h47.2v-263h93.5v290.5c0,20.1-9.2,39.2-27.7,48.8l-17.5,4.3h-112c-11.3-3.2-23.6-15.9-29.8-26.5
		c-8.2,14.9-12.3,26.5-29.8,26.5h-105.8c-8.2-2.1-12.3-3.2-17.5-5.3c-9.2-5.3-25.7-12.7-25.7-47.7V1115h90.4v263h50.3v-263h84.3
		L1297.3,1377.9L1297.3,1377.9z M1382.6,1527.4c-5.1,0-11.3,3.2-11.3,15.9v28.6h-14.4v-55.1h14.4v7.4c4.1-7.4,11.3-9.5,16.4-9.5
		c12.3,0,18.5,7.4,18.5,20.1v37.1h-14.4V1538C1391.9,1529.5,1387.7,1527.4,1382.6,1527.4z M1325.1,1561.3c6.2,0,8.2-3.2,9.2-6.4
		h15.4c-3.1,8.5-9.2,19.1-25.7,19.1c-15.4,0-25.7-10.6-25.7-29.7c0-19.1,10.3-29.7,25.7-29.7c18.5,0,25.7,13.8,25.7,33.9h-37
		C1312.7,1556,1315.8,1561.3,1325.1,1561.3z M1267.5,1527.4c-5.1,0-9.2,3.2-9.2,14.9v29.7h-15.4V1538c0-8.5-3.1-10.6-7.2-10.6
		c-5.1,0-10.3,3.2-10.3,14.9v29.7H1211v-55.1h14.4v7.4c3.1-5.7,8.9-9.3,15.4-9.5c7.2,0,12.3,3.2,15.4,9.5c3.1-7.4,11.3-9.5,16.4-9.5
		c11.3,0,17.5,7.4,17.5,20.1v37.1h-15.4V1538C1274.7,1529.5,1271.7,1527.4,1267.5,1527.4z M1178.2,1561.3c6.2,0,8.2-3.2,9.2-6.4
		h14.4h0c-2.1,8.5-9.2,19.1-24.7,19.1c-16.4,0-26.7-10.6-26.7-29.7c0-19.1,11.3-29.7,26.7-29.7c17.5,0,24.7,13.8,24.7,33.9h-36
		C1165.8,1556,1167.9,1561.3,1178.2,1561.3z M1147.3,1516.8l-19.5,55.1h-15.4l-19.5-55.1h16.4l11.3,41.3l11.3-41.3H1147.3z
		 M1091.9,1544.4c0,18-11.3,29.7-27.7,29.7c-16.4,0-27.7-11.7-27.7-29.7c0-19.1,11.3-29.7,27.7-29.7
		C1080.6,1514.7,1091.9,1525.3,1091.9,1544.4z M965.5,1514.7c13.4,0,22.6,10.6,22.6,28.6c0,17-8.2,30.8-22.6,30.8
		c-9.2,0-13.3-4.2-15.4-8.5v28.6h-14.4v-77.4h0h13.4v6.4C952.1,1520,955.2,1514.7,965.5,1514.7z M966.5,1457.4l-156.2,1.1
		c-15.4-1.1-30.8-5.3-39-20.2c-7.2-7.4-7.2-18-7.2-26.5V1151c2.1-13.8,11.3-27.6,24.7-32.9l12.3-3.2h176.7c17.5,1.1,33.9,17,39,33.9
		l4.1,19.1l1,249.1c-4.1,15.9-14.4,31.8-30.8,37.1L966.5,1457.4z M899.8,1527.4c-4.1,0-9.2,3.2-9.2,14.9v29.7h-14.4V1538
		c0-8.5-4.1-10.6-8.2-10.6c-4.1,0-9.2,3.2-9.2,14.9v29.7h-14.4v-55.1h13.3v7.4c3.1-5.7,8.9-9.3,15.4-9.5c7.2,0,12.3,3.2,15.4,9.5
		c4.1-7.4,12.3-9.5,16.4-9.5c11.3,0,17.5,7.4,17.5,20.1v37.1H908V1538C908,1529.5,903.9,1527.4,899.8,1527.4z M828.9,1495.6v76.3
		h-15.4v-76.3H828.9z M743.6,1561.3c6.2,0,8.2-3.2,9.2-6.4h14.4c-2.1,8.5-9.2,19.1-24.7,19.1c-16.4,0-26.7-10.6-26.7-29.7
		c0-19.1,11.3-29.7,26.7-29.7c17.5,0,24.7,13.8,24.7,33.9h-37C731.3,1556,733.3,1561.3,743.6,1561.3z M999.4,1516.8h14.4v8.5
		c1-2.1,6.2-10.6,14.4-10.6h3.1v15.9c-1-1.1-2-1.1-4.1-1.1c-11.3,0-13.4,7.4-13.4,14.9v27.6h-14.4V1516.8z M685,1527.4
		c-4.1,0-9.2,3.2-9.2,14.9v29.7h-14.4V1538c0-8.5-4.1-10.6-8.2-10.6c-4.1,0-9.2,3.2-9.2,14.9v29.7h-14.4v-55.1h13.4v7.4h1
		c3.1-7.4,10.3-9.5,14.4-9.5c8.2,0,13.3,3.2,15.4,9.5c4.1-7.4,12.3-9.5,16.4-9.5c11.3,0,17.5,7.4,17.5,20.1v37.1h-14.4V1538
		C693.3,1529.5,689.2,1527.4,685,1527.4z M622.4,1544.4c0,18-11.3,29.7-27.7,29.7c-16.4,0-27.7-11.7-27.7-29.7
		c0-19.1,11.3-29.7,27.7-29.7C611.1,1514.7,622.4,1525.3,622.4,1544.4z M498.1,1495.6h15.4v28.6h28.8v-28.6h15.4v76.3h-15.4V1538
		h-28.8v33.9h-15.4V1495.6z"/>
</g>
</svg>
