<svg width="49" height="81" viewBox="0 0 49 81" fill="none" xmlns="http://www.w3.org/2000/svg">
    <g clip-path="url(#clip0_50_426)">
    <path d="M32.7362 27.6894C32.7362 33.1652 32.7362 38.5376 32.7362 44.0134C32.7362 44.3234 32.8404 44.53 33.1532 44.7366C37.0106 47.6295 39.4085 51.4522 40.4511 56.1014C40.8681 58.0644 41.0766 60.0274 40.8681 62.0938C40.5553 66.5364 38.9915 70.5657 36.0723 73.9751C32.7362 77.9012 28.4617 80.1741 23.3532 80.794C17.4106 81.6206 11.9894 80.1741 7.29788 76.3514C3.44043 73.1486 1.04256 69.016 0.312769 64.0568C-0.625529 58.581 0.52128 53.4152 3.75319 48.766C4.79575 47.2162 6.15107 45.8731 7.7149 44.8399C8.13192 44.53 8.23617 44.3234 8.23617 43.8068C8.23617 33.3718 8.23617 22.8336 8.23617 12.3986C8.13192 9.81571 8.75745 7.2328 10.4255 5.06316C12.4064 2.27362 15.117 0.620559 18.5574 0.207294C22.4149 -0.309287 25.8553 0.517243 28.7745 3.10015C30.8596 4.95984 32.1106 7.33612 32.6319 10.1257C32.7362 10.9522 32.8404 11.6754 32.8404 12.5019C32.7362 17.5644 32.7362 22.6269 32.7362 27.6894ZM28.566 28.516C28.566 23.1435 28.566 17.8744 28.566 12.5019C28.566 11.9854 28.566 11.4688 28.4617 10.9522C27.7319 5.99301 22.6234 2.99683 17.9319 4.54658C14.5957 5.68306 12.3021 8.78255 12.3021 12.3986C12.3021 21.6971 12.3021 30.9956 12.3021 40.1907C12.3021 42.0504 12.3021 43.8068 12.3021 45.6665C12.3021 46.493 11.8851 47.1129 11.2596 47.6295C9.90426 48.5593 8.65319 49.6958 7.61064 51.0389C4.69149 54.8616 3.54468 59.0976 4.48298 63.8501C5.21277 67.4662 6.98511 70.5657 9.8 72.942C13.6574 76.2481 18.1404 77.4879 23.1447 76.7647C27.1064 76.1448 30.4426 74.1818 33.0489 71.0823C36.0723 67.4662 37.3234 63.2302 36.5936 58.4777C35.8638 53.9318 33.6745 50.3157 29.9213 47.7328C28.983 47.1129 28.6702 46.3897 28.6702 45.2532C28.566 39.6741 28.566 34.095 28.566 28.516Z" fill="#983820"/>
    <path d="M42.849 12.1913C41.4937 12.1913 40.1384 12.1913 38.8873 12.1913C37.3235 12.1913 36.3852 10.9515 36.8022 9.5051C37.0107 8.67857 37.7405 8.16199 38.6788 8.16199C41.4937 8.16199 44.3086 8.16199 47.0192 8.16199C48.166 8.16199 49.0001 9.09183 49.0001 10.2283C49.0001 11.3648 48.166 12.1913 47.0192 12.2946C45.6639 12.1913 44.3086 12.1913 42.849 12.1913Z" fill="#983820"/>
    <path d="M42.8488 40.5C44.2042 40.5 45.5595 40.5 46.8105 40.5C48.1659 40.5 48.9999 41.3266 48.9999 42.5663C48.9999 43.8061 48.1659 44.6327 46.9148 44.6327C44.4127 44.6327 41.9105 44.6327 39.4084 44.6327C39.0956 44.6327 38.6786 44.6327 38.3659 44.5294C37.219 44.3227 36.5935 43.4962 36.6978 42.2564C36.802 41.2232 37.5318 40.5 38.5744 40.5C40.1382 40.3967 41.4935 40.5 42.8488 40.5Z" fill="#983820"/>
    <path d="M42.8488 28.3087C41.4935 28.3087 40.1382 28.3087 38.7829 28.3087C37.219 28.3087 36.2807 27.0689 36.802 25.6225C37.0105 24.8993 37.6361 24.3827 38.3658 24.2794C38.5743 24.2794 38.8871 24.2794 39.0956 24.2794C41.5978 24.2794 44.0999 24.2794 46.602 24.2794C46.9148 24.2794 47.2275 24.2794 47.5403 24.3827C48.4786 24.5893 49.1041 25.5192 48.9999 26.5523C48.8956 27.6888 48.1658 28.412 47.1233 28.412C45.768 28.3087 44.3084 28.3087 42.8488 28.3087Z" fill="#983820"/>
    <path d="M40.8682 20.25C40.2427 20.25 39.5129 20.25 38.8873 20.25C37.6363 20.25 36.8022 19.5268 36.8022 18.4936C36.698 17.1505 37.3235 16.324 38.5746 16.2207C40.1384 16.1174 41.7022 16.1174 43.2661 16.2207C44.3086 16.324 44.9341 17.2538 44.9341 18.3903C44.8299 19.4235 44.1001 20.1467 43.0575 20.1467C42.3278 20.25 41.598 20.25 40.8682 20.25Z" fill="#983820"/>
    <path d="M40.868 32.338C41.5978 32.338 42.3275 32.338 43.0573 32.338C44.0999 32.338 44.9339 33.1645 44.9339 34.1977C44.9339 35.4375 44.3084 36.3674 43.1616 36.3674C41.5978 36.4707 40.0339 36.3674 38.4701 36.3674C37.3233 36.3674 36.6978 35.4375 36.6978 34.301C36.6978 33.1645 37.4275 32.4413 38.5743 32.4413C39.4084 32.338 40.1382 32.338 40.868 32.338Z" fill="#983820"/>
    <path d="M24.4999 36.4706C24.4999 40.6033 24.4999 44.736 24.4999 48.8686C24.4999 49.2819 24.6042 49.3852 25.0212 49.5918C28.9829 51.1416 31.485 53.9311 32.4233 57.9604C33.2574 61.7831 32.5276 65.3992 30.0254 68.4987C28.0446 70.9783 25.4382 72.3214 22.3106 72.7347C20.1212 73.0446 18.0361 72.838 16.0552 72.1148C13.6574 71.1849 11.6765 69.7385 10.2169 67.5689C8.86162 65.5025 8.23608 63.2296 8.23608 60.75C8.23608 55.6875 11.2595 51.3482 15.951 49.5918C16.2637 49.4885 16.368 49.2819 16.368 48.9719C16.368 40.8099 16.368 32.7513 16.368 24.5893C16.368 23.7627 16.4723 22.8329 16.8893 22.1097C17.8276 20.6632 19.1829 20.1467 20.851 20.25C22.6233 20.3533 23.9786 21.4898 24.3957 23.1428C24.4999 23.5561 24.4999 23.9694 24.4999 24.3826C24.4999 28.412 24.4999 32.4413 24.4999 36.4706Z" fill="#983820"/>
    </g>
    <defs>
    <clipPath id="clip0_50_426">
    <rect width="49" height="81" fill="white"/>
    </clipPath>
    </defs>
    </svg>
    