<?xml version="1.0" standalone="no"?>
<!DOCTYPE svg PUBLIC "-//W3C//DTD SVG 20010904//EN"
 "http://www.w3.org/TR/2001/REC-SVG-20010904/DTD/svg10.dtd">
<svg version="1.0" xmlns="http://www.w3.org/2000/svg"
 width="1668.000000pt" height="1668.000000pt" viewBox="0 0 1668.000000 1668.000000"
 preserveAspectRatio="xMidYMid meet">
<metadata>
Created by potrace 1.14, written by Peter Selinger 2001-2017
</metadata>
<g transform="translate(0.000000,1668.000000) scale(0.100000,-0.100000)"
fill="#000000" stroke="none">
<path d="M11637 15063 c-1 -1 -67 -4 -147 -8 -195 -9 -355 -20 -430 -30 -19
-2 -60 -7 -90 -10 -30 -3 -66 -8 -80 -10 -14 -2 -45 -7 -70 -10 -65 -8 -154
-24 -240 -41 -41 -9 -88 -18 -105 -21 -16 -2 -70 -16 -120 -29 -49 -14 -101
-27 -115 -30 -14 -3 -72 -21 -130 -40 -678 -227 -1151 -617 -1490 -1229 -38
-70 -70 -129 -70 -130 0 -2 -20 -47 -45 -99 -25 -53 -45 -98 -45 -100 0 -2 -7
-20 -15 -40 -8 -20 -16 -39 -16 -43 -1 -5 -10 -25 -20 -45 -11 -21 -17 -38
-13 -38 4 0 2 -6 -4 -12 -39 -50 -220 -710 -257 -938 -3 -19 -10 -57 -15 -85
-5 -27 -12 -63 -15 -80 -3 -16 -17 -93 -31 -170 -14 -77 -27 -153 -29 -169 -2
-15 -6 -35 -9 -45 -3 -9 -8 -36 -11 -61 -4 -25 -10 -63 -15 -85 -5 -22 -11
-60 -15 -85 -4 -25 -10 -63 -15 -85 -5 -22 -12 -62 -16 -90 -3 -27 -8 -52 -9
-55 -4 -7 -34 -177 -41 -229 -3 -19 -9 -52 -14 -75 -5 -22 -14 -70 -19 -106
-12 -72 -17 -98 -32 -180 -5 -30 -17 -93 -25 -140 -21 -118 -23 -132 -29 -160
-3 -14 -10 -52 -15 -85 -5 -33 -12 -69 -14 -80 -8 -47 -18 -102 -22 -125 -3
-14 -11 -61 -19 -105 -8 -44 -17 -93 -19 -110 -3 -16 -21 -118 -40 -225 -19
-107 -38 -211 -41 -230 -3 -19 -8 -42 -10 -50 -2 -8 -6 -31 -9 -50 -3 -19 -10
-60 -16 -90 -6 -30 -13 -71 -16 -90 -3 -19 -17 -96 -30 -170 -14 -74 -36 -200
-50 -280 -13 -80 -26 -152 -29 -160 -2 -8 -7 -35 -10 -60 -4 -24 -8 -47 -10
-50 -1 -3 -6 -25 -9 -50 -3 -25 -8 -56 -11 -70 -3 -14 -8 -41 -11 -60 -4 -19
-8 -44 -11 -55 -2 -11 -6 -36 -9 -55 -3 -19 -11 -66 -19 -105 -8 -38 -16 -85
-19 -102 -10 -55 -17 -95 -32 -178 -9 -44 -17 -91 -19 -105 -2 -14 -6 -36 -9
-50 -3 -13 -8 -40 -11 -60 -3 -20 -8 -47 -10 -60 -6 -29 -35 -258 -40 -310
-22 -243 -22 -577 0 -720 5 -30 15 -105 20 -140 2 -14 11 -56 19 -95 72 -336
213 -616 418 -833 147 -155 294 -262 503 -365 169 -83 422 -169 600 -203 11
-2 31 -6 45 -9 98 -20 209 -37 325 -50 28 -3 66 -8 85 -10 225 -27 791 -26
1055 0 48 5 110 11 220 21 28 2 77 9 110 14 33 5 78 12 100 15 72 11 219 35
245 40 14 3 50 10 80 16 90 17 103 20 150 30 25 6 52 12 60 14 8 1 33 8 55 13
22 6 51 13 65 16 36 6 299 80 410 115 330 103 797 289 794 316 -1 6 -5 42 -9
80 -3 39 -8 79 -10 90 -4 19 -10 72 -21 180 -2 28 -9 86 -15 130 -5 44 -12 98
-15 120 -2 22 -6 56 -9 75 -5 44 -13 108 -20 183 -4 32 -8 68 -11 80 -2 12 -6
47 -9 77 -3 30 -8 71 -10 90 -3 19 -7 58 -10 85 -3 28 -8 66 -10 85 -4 33 -19
159 -31 260 -9 76 -16 125 -18 127 -1 1 -56 -15 -122 -36 -212 -69 -542 -168
-589 -177 -16 -3 -32 -7 -36 -10 -7 -4 -297 -79 -344 -89 -11 -3 -92 -21 -180
-41 -88 -20 -171 -38 -185 -40 -14 -2 -36 -7 -50 -10 -14 -3 -36 -8 -50 -10
-14 -3 -59 -11 -101 -19 -42 -8 -98 -17 -125 -20 -27 -4 -56 -8 -64 -10 -8 -2
-37 -7 -65 -10 -27 -4 -61 -8 -75 -11 -14 -2 -52 -6 -85 -9 -33 -4 -78 -8
-100 -11 -94 -12 -385 -14 -460 -3 -182 25 -308 92 -386 205 -88 128 -107 322
-59 589 5 28 12 64 15 80 2 17 9 55 15 85 5 30 12 69 14 85 7 42 46 275 51
305 3 14 9 50 15 80 9 53 14 83 25 153 3 17 10 55 15 82 5 28 12 66 15 85 3
19 12 69 20 110 8 41 21 116 30 165 8 50 18 104 21 120 3 17 20 113 39 215 39
212 49 271 50 285 1 6 4 24 8 40 5 24 53 287 73 405 3 14 21 113 40 220 20
107 38 209 40 225 4 25 23 133 60 330 4 22 8 47 9 55 1 8 14 80 29 160 14 80
28 157 31 173 3 15 7 39 10 55 5 28 51 282 85 477 11 61 22 121 25 135 3 14
12 66 21 115 20 120 19 114 43 245 12 63 28 153 37 200 8 47 19 99 24 115 5
17 11 44 13 60 3 17 8 37 11 45 3 8 7 26 10 40 7 40 75 259 103 330 138 356
357 593 661 714 106 43 289 91 383 101 35 4 66 8 69 10 5 3 80 10 225 21 102
7 416 7 515 0 l85 -7 309 -207 c170 -114 409 -273 530 -354 122 -81 226 -151
231 -156 6 -5 22 -16 37 -26 l26 -17 20 68 c19 63 109 384 188 673 19 69 43
157 54 195 10 39 47 165 80 280 34 116 63 217 65 225 2 8 42 150 90 315 48
165 94 327 104 361 l17 61 -26 11 c-53 24 -208 74 -345 111 -118 33 -154 42
-215 56 -3 1 -18 4 -35 8 -45 11 -180 38 -254 52 -14 3 -37 7 -51 10 -60 12
-155 28 -235 39 -22 4 -51 8 -65 11 -14 2 -50 7 -81 10 -31 3 -65 7 -76 9 -11
3 -57 7 -104 11 -46 4 -92 9 -102 11 -61 11 -770 27 -780 17z"/>
<path d="M4369 14680 c-3 -14 5 -72 37 -250 19 -107 44 -244 54 -305 11 -60
31 -175 45 -255 14 -80 27 -154 29 -165 4 -24 57 -321 62 -350 2 -11 6 -31 9
-45 2 -14 7 -41 10 -60 6 -36 15 -89 21 -125 16 -87 24 -136 29 -170 4 -22 8
-48 11 -57 3 -9 -3 -58 -12 -110 -9 -51 -18 -102 -19 -113 -3 -19 -10 -56 -19
-101 -2 -12 -7 -37 -10 -55 -3 -19 -19 -108 -35 -199 -16 -91 -32 -181 -35
-200 -3 -19 -8 -46 -11 -60 -2 -14 -7 -36 -10 -50 -2 -14 -7 -41 -10 -60 -3
-19 -10 -57 -15 -85 -5 -27 -12 -66 -15 -85 -3 -19 -12 -71 -20 -115 -14 -80
-20 -115 -30 -170 -3 -16 -10 -52 -15 -80 -5 -27 -12 -66 -15 -85 -3 -19 -13
-73 -21 -120 -9 -47 -18 -96 -20 -110 -3 -14 -11 -61 -19 -105 -8 -44 -16 -91
-19 -105 -2 -14 -9 -52 -15 -85 -6 -33 -13 -76 -16 -95 -20 -110 -27 -155 -64
-360 -22 -124 -43 -238 -45 -255 -3 -16 -15 -79 -26 -140 -11 -60 -25 -137
-30 -170 -5 -33 -12 -71 -15 -85 -6 -29 -24 -131 -31 -175 -2 -16 -9 -50 -14
-75 -11 -54 -30 -163 -36 -205 -2 -16 -8 -52 -14 -80 -5 -27 -11 -61 -14 -75
-2 -14 -7 -43 -11 -65 -11 -58 -13 -68 -21 -122 -5 -26 -9 -50 -9 -53 -1 -3
-5 -27 -10 -55 -5 -27 -10 -52 -10 -55 -1 -3 -5 -25 -9 -50 -5 -25 -10 -52
-11 -60 -22 -118 -35 -191 -39 -220 -3 -19 -12 -73 -21 -119 -9 -46 -18 -96
-20 -110 -2 -14 -9 -51 -15 -81 -6 -30 -13 -71 -16 -90 -3 -19 -12 -73 -21
-120 -8 -47 -17 -96 -19 -110 -3 -14 -11 -59 -19 -100 -8 -41 -22 -120 -31
-175 -9 -55 -18 -109 -20 -120 -2 -11 -8 -45 -14 -75 -6 -30 -12 -64 -14 -75
-2 -11 -7 -40 -11 -65 -4 -25 -9 -54 -11 -65 -9 -42 -53 -292 -58 -325 -3 -19
-8 -46 -11 -60 -2 -14 -7 -36 -10 -50 -2 -14 -7 -41 -10 -60 -3 -19 -12 -71
-20 -115 -8 -44 -17 -93 -20 -110 -3 -16 -8 -46 -11 -65 -3 -19 -7 -42 -9 -50
-3 -8 -7 -32 -11 -54 -3 -21 -7 -48 -10 -60 -2 -11 -15 -86 -29 -166 -14 -80
-28 -156 -30 -170 -3 -14 -16 -90 -30 -170 -14 -80 -28 -154 -30 -165 -3 -11
-7 -31 -9 -45 -2 -14 -7 -41 -10 -60 -3 -19 -8 -48 -11 -65 -11 -63 -55 -311
-60 -335 -3 -14 -8 -41 -11 -60 -3 -19 -14 -80 -24 -135 -10 -55 -21 -116 -24
-135 -6 -38 -20 -115 -36 -207 -6 -32 -15 -83 -20 -113 -6 -30 -12 -65 -14
-76 -2 -12 -7 -39 -10 -60 -4 -22 -8 -46 -11 -54 -2 -8 -6 -31 -9 -50 -3 -19
-16 -96 -30 -170 -13 -74 -27 -151 -30 -170 -3 -19 -13 -73 -21 -120 -9 -47
-18 -96 -20 -110 -2 -14 -24 -140 -49 -280 -25 -140 -48 -268 -51 -285 -3 -16
-7 -41 -10 -55 -3 -14 -12 -65 -21 -115 -8 -49 -17 -101 -20 -115 -2 -14 -7
-40 -10 -59 -3 -18 -7 -41 -9 -50 -11 -56 -35 -192 -40 -221 -3 -19 -15 -87
-26 -150 -12 -63 -23 -126 -25 -140 -10 -57 -24 -137 -29 -160 -3 -14 -7 -36
-9 -50 -3 -14 -8 -42 -11 -64 -3 -21 -7 -41 -9 -45 -2 -3 -7 -31 -10 -63 l-7
-56 878 3 c483 2 1409 6 2058 9 2847 14 3717 18 4132 19 244 1 443 3 443 4 0
1 9 48 20 105 10 57 22 119 25 138 3 19 12 69 20 110 8 41 17 91 20 110 3 19
17 91 30 160 13 69 27 143 30 165 4 22 10 56 15 75 4 19 12 58 16 85 4 28 8
55 9 60 8 37 25 125 30 150 3 17 7 40 9 51 2 12 7 37 10 55 11 67 16 95 26
139 5 25 16 86 25 135 9 50 20 110 25 135 9 43 43 229 55 297 3 18 14 77 24
130 11 54 22 117 26 140 l6 41 -83 -18 c-46 -11 -96 -21 -113 -24 -25 -5 -236
-48 -300 -62 -11 -2 -36 -7 -55 -10 -19 -4 -44 -9 -55 -11 -11 -2 -31 -6 -45
-9 -14 -3 -135 -28 -270 -55 -135 -27 -335 -68 -445 -90 -110 -22 -207 -42
-215 -44 -48 -10 -329 -67 -350 -71 -14 -2 -36 -7 -50 -10 -26 -7 -160 -8
-1915 -19 -566 -4 -1146 -7 -1288 -8 -142 -1 -263 1 -269 4 -7 4 -6 24 1 60
10 53 14 72 26 153 4 21 9 48 11 60 4 21 27 147 40 216 3 19 8 44 9 55 2 11
10 58 19 105 16 84 60 332 71 400 3 19 12 71 21 115 18 99 44 241 49 275 2 14
8 48 14 75 5 28 12 70 16 95 4 25 13 74 20 110 7 36 16 85 20 110 4 25 15 90
25 145 11 55 22 114 24 130 3 17 8 41 10 55 3 14 8 41 10 60 3 19 8 49 11 65
10 53 34 189 40 220 2 17 7 41 10 55 3 14 10 51 15 83 6 31 14 83 20 115 5 31
12 68 15 82 3 14 9 50 14 80 6 30 17 96 26 145 18 101 36 202 60 335 3 19 12
71 20 115 8 44 17 94 20 110 3 17 12 68 21 115 8 47 18 99 20 115 3 17 11 62
19 100 8 39 16 90 20 115 3 25 8 52 10 60 2 8 7 35 10 60 3 25 10 61 15 80 5
20 12 53 15 75 2 22 7 51 10 65 2 14 7 39 10 55 7 43 13 77 36 199 11 60 22
121 24 135 2 14 9 52 15 84 23 129 31 175 40 227 6 30 12 64 14 75 2 11 7 40
11 65 4 25 9 54 11 65 3 11 7 35 10 54 3 18 8 43 10 55 2 11 7 35 9 51 3 17
10 55 16 85 6 30 12 64 14 75 4 30 21 124 50 285 15 80 28 156 30 170 2 14 11
61 19 105 8 44 18 96 21 115 5 33 41 233 65 365 6 33 13 71 15 85 2 14 14 79
26 145 12 66 23 127 24 135 1 8 5 29 8 45 4 17 9 46 12 65 6 37 22 131 29 166
2 12 7 37 10 55 3 19 7 43 10 54 2 11 7 40 11 65 4 25 9 54 11 65 17 87 35
187 39 220 4 22 8 47 10 55 3 8 7 33 10 55 4 22 13 72 20 110 8 39 17 88 20
110 4 22 9 49 10 60 2 11 20 108 39 215 19 107 38 209 41 225 2 17 7 41 10 55
2 13 7 40 10 60 3 20 8 47 10 60 6 29 37 203 60 335 8 50 17 97 20 105 2 8 6
33 10 55 3 22 7 47 10 55 2 8 6 33 10 55 3 22 12 76 20 120 8 44 16 91 19 105
7 42 25 143 31 175 3 17 21 118 40 225 19 107 37 204 39 215 2 11 7 40 11 65
4 25 9 54 11 65 6 29 56 307 59 330 7 44 57 319 70 385 3 14 8 45 11 70 l6 45
-1386 0 c-762 0 -1386 -2 -1387 -5z"/>
</g>
</svg>
