<?xml version="1.0" encoding="utf-8"?>
<!-- Generator: Adobe Illustrator 26.0.1, SVG Export Plug-In . SVG Version: 6.00 Build 0)  -->
<svg version="1.1" id="Layer_1" xmlns="http://www.w3.org/2000/svg" xmlns:xlink="http://www.w3.org/1999/xlink" x="0px" y="0px"
	 viewBox="0 0 2500 2500" style="enable-background:new 0 0 2500 2500;" xml:space="preserve">
<style type="text/css">
	.st0{fill-rule:evenodd;clip-rule:evenodd;fill:none;}
	.st1{fill-rule:evenodd;clip-rule:evenodd;fill:#FFFFFF;}
</style>
<g>
	<path class="st0" d="M0,0h2500v2500H0V0z"/>
	<path class="st1" d="M1708.9,1210.4c-69.8,211.6-197.1,345.6-443,345.6c-222.2,0-406.7-248.4-360.3-490.7
		c41-214,198.5-419.4,453.1-419.4c238.9,0,380.8,197.4,381.9,393.5h-167.3c0-67-45.6-244.3-246.9-222.7l-116.5,546.9
		c84.1,38.6,227.1,31.9,325.8-153.5L1708.9,1210.4L1708.9,1210.4z M488.2,1538.9H56.7L389,1044.3L488.2,1538.9L488.2,1538.9z
		 M617.7,1538.9h327.9l-205-1018.5L488.3,898.6L617.7,1538.9L617.7,1538.9z M1660,1538.9h611.6l36.7-164.4h-309.6l36.7-164.3h304.2
		l34.5-164.3h-304.2l38.8-179.4h301l36.7-164.3h-607.3L1660,1538.9L1660,1538.9z M108.2,1968.9l67.1-335.5h90.8l-22.7,115.2h110
		l22.5-115.2h90.6l-67.1,335.5h-90.6l26.3-129.7h-110l-25.9,129.7H108.2z M1524.4,1859.8l64.3-130.1h85.7l-120.8,239.7h-88.3
		l-15.3-141h-0.9l-64.7,141h-88.3l-27.3-239.7h88.3l8.3,131.2h0.9l69.7-131.2h76.5L1524.4,1859.8L1524.4,1859.8z M868.1,1759.3
		c23.2-24.3,38.4-35.7,65.3-35.7c6.5,0,13.5,1.1,18.3,2.2l-19.2,77.1c-6.1-0.9-11.3-0.9-17.4-0.9c-46.8,0-58.2,27.4-69.7,84.8
		l-16.7,82.8h-85.2l48-239.7h76.9c-0.8,1.3-5.1,26.7-5.1,26.7C862.2,1760.9,867,1762,868.1,1759.3L868.1,1759.3z M2075.9,1759.3
		c23.2-24.3,38.4-35.7,65.3-35.7c6.5,0,13.5,1.1,18.3,2.2l-19.2,77.1c-6.1-0.9-11.3-0.9-17.4-0.9c-46.8,0-58.2,27.4-69.7,84.8
		l-16.7,82.8h-85.1l47.9-239.7h76.9c-0.8,1.3-5.1,26.7-5.1,26.7C2069.9,1760.9,2074.8,1762,2075.9,1759.3L2075.9,1759.3z
		 M2412.8,1873.4c18.5-86.9-28.7-148.6-113.1-148.6c-86.3,0-132.8,44.5-148.9,123.2c-16.2,80.5,34.1,130.6,107.1,130.6
		c53,0,114.6-19.7,142.2-79.2h-86.5c-9.6,14.2-23.8,21-38.1,21c-23.9,0-41.1-18.8-35.4-47.1L2412.8,1873.4L2412.8,1873.4
		L2412.8,1873.4z M2300.6,1783.1c21.3,0,35.9,14.7,31.7,36.6h-82.2C2254.9,1794.1,2273.7,1783.1,2300.6,1783.1z M1169.8,1633.8
		l-22.8,116.7c-18.3-15.1-38.1-28.5-66.8-27.8c-70.1,1.9-113.2,53.8-124,116.4c-14.5,84.4,20.5,137.3,79.9,137
		c29.1,0,47.4,1.3,67.9-21.4l3.7,14.5h81.3l67.1-335.5L1169.8,1633.8L1169.8,1633.8z M1127,1852c-7.9,34.9-22,71.6-54.9,71.6
		c-35,0-35.4-55.2-29.6-75.7c11.3-40.5,27-57.3,57.2-57.3C1131.1,1790.7,1133.3,1824.3,1127,1852z M1829.1,1720.9
		c-77.1,0-128.3,17.8-140.4,82.3h87c6.3-20.6,21.1-31.4,41.6-32c9.5-0.3,34.9,5.3,31.3,22.7c-8.9,44.9-168-7.3-189.9,101.6
		c-9.9,49.9,34.6,80.6,77.7,80.6c33.9,0,46.4-0.6,72.3-22.2l4.1,15.4l90.8-0.3c-6.5-9.7-3.1-30.6,0-44.3l20.2-102.7
		C1932.7,1777.7,1937,1720.9,1829.1,1720.9z M1773,1924.8c-17.8,0-27.2-10.8-24.6-22.7c0.8-31.4,61.1-33.6,81.7-40
		C1826.5,1901,1805.3,1924.8,1773,1924.8L1773,1924.8z M619.2,1720.9c-77.1,0-128.4,17.8-140.4,82.3h87c6.3-20.6,21.1-31.4,41.6-32
		c9.6-0.3,34.9,5.3,31.3,22.7c-8.9,44.9-168-7.3-189.9,101.6c-9.9,49.9,34.6,80.6,77.7,80.6c33.9,0,46.4-0.6,72.3-22.2l4.1,15.4
		l90.8-0.3c-6.5-9.7-3.1-30.6,0-44.3l20.2-102.7C722.8,1777.7,727.1,1720.9,619.2,1720.9z M563.1,1924.8
		c-17.8,0-27.1-10.8-24.6-22.7c0.8-31.4,61.1-33.6,81.7-40C616.6,1901,595.4,1924.8,563.1,1924.8z M2343.1,1506.5
		c-4.3-4.4-10.2-6.8-16.3-6.7c-6.3,0-11.7,2.2-16.2,6.7c-4.5,4.5-6.7,9.9-6.7,16.3c0,6.4,2.2,11.8,6.7,16.3
		c4.5,4.5,9.9,6.8,16.3,6.8c6.4,0,11.8-2.3,16.3-6.8c4.5-4.5,6.8-10,6.8-16.3S2347.7,1511,2343.1,1506.5z M2340.9,1536.8
		c-3.9,3.9-8.5,5.8-14,5.8c-5.5,0-10.2-1.9-14-5.8c-3.8-3.7-5.8-8.8-5.7-14.1c0-5.5,1.9-10.2,5.8-14c3.6-3.8,8.7-5.9,14-5.8
		c5.5,0,10.2,1.9,14,5.8c3.9,3.9,5.8,8.5,5.8,14C2346.6,1528.3,2344.7,1532.9,2340.9,1536.8L2340.9,1536.8z"/>
	<path class="st1" d="M2337.1,1535c-0.1-0.4-0.2-0.9-0.2-1.3c-0.1-0.6-0.1-1.3-0.1-1.9v-1.9c0-1.4-0.5-2.8-1.4-3.9
		c-1-1.4-2.6-2.3-4.4-2.5c1.3-0.2,2.5-0.6,3.7-1.2c1.7-1.1,2.5-2.7,2.5-5c0-3.2-1.3-5.3-3.9-6.4c-1.4-0.6-3.7-0.9-6.9-0.9h-8.8v25.3
		h4.5v-10h3.5c2.4,0,4,0.3,5,0.8c1.6,1,2.4,2.9,2.4,5.8v2l0.1,0.8c0,0.1,0,0.2,0.1,0.3l0.1,0.3h4.2L2337.1,1535L2337.1,1535z
		 M2330.3,1521.6c-1.4,0.4-2.8,0.6-4.2,0.6h-4v-9.2h3.8c2.5,0,4.3,0.3,5.4,0.9c1.1,0.6,1.7,1.9,1.7,3.7
		C2332.9,1519.6,2332,1521,2330.3,1521.6L2330.3,1521.6z"/>
</g>
</svg>
