<?xml version="1.0" encoding="utf-8"?>
<!-- Generator: Adobe Illustrator 26.0.1, SVG Export Plug-In . SVG Version: 6.00 Build 0)  -->
<svg version="1.1" id="Layer_1" xmlns="http://www.w3.org/2000/svg" xmlns:xlink="http://www.w3.org/1999/xlink" x="0px" y="0px"
	 viewBox="0 0 2500 2500" style="enable-background:new 0 0 2500 2500;" xml:space="preserve">
<style type="text/css">
	.st0{fill:#FFFFFF;}
</style>
<g>
	<path class="st0" d="M536.5,2388.5c16.1-30.8,11.4-34.2-13.5-59.1l-352.7-352.6c-25-25-28.3-29.7-59.2-13.6
		c-0.3,0.2-0.6,0.3-0.9,0.4v426.1h425.6L536.5,2388.5z"/>
	<path class="st0" d="M2274,2331.8c29,0,51.9-22.7,51.9-53.6c0-30.3-22.9-53.2-51.9-53.2c-29.3,0-52.2,22.9-52.2,53.2
		C2221.8,2309.1,2244.7,2331.8,2274,2331.8z M2249.3,2241.5h28.1c17.5,0,26.1,6.4,26.1,21c0,13.2-8.3,19-19.1,20.3l21,32.6h-12.6
		l-19.5-32h-12.9v32h-11.2V2241.5z"/>
	<path class="st0" d="M2291.8,2261.8c0-9.1-8.3-10.8-16.1-10.8h-15.3v22.9h13.4C2283.3,2273.9,2291.8,2273.2,2291.8,2261.8z"/>
	<path class="st0" d="M2075.4,194.2c3.4,3.3,15.6,16.9-4.6,36.9c-11.5,11.5-21.6,8.1-35,1.4c-71.9-37.2-139.2-35.8-207.7,13.8
		l-39.1-39l97.1-97.1H110.3v1775.8l162-162c2.7-2.6,26.2-23.5,45.6-4.1c9.4,9.5,9.5,21.5,3.5,33c-16.2,31-11.5,34.3,13.5,59.3
		l352.6,352.6c24.9,25,28.2,29.7,59.2,13.6c11.4-6.1,23.5-6.1,32.9,3.4c19.5,19.5-1.3,43-4,45.7l-162.2,162.3h648.4
		c1.2-2.6,2.6-5.3,4-8.2c5-9.4-6-18.9-11.6-24.6l-198.3-198.3c-5.7-5.7-15.1-16.6-24.6-11.7c-10.2,4.9-18.5,11-28,1.6
		c-9.8-9.8-1.5-20.5,6.1-28l96.8-96.9l283,283l-83.1,83.1h1083.7V1306l-90.7,90.7c-1.5,1.5-14.7,13.3-25.7,2.3
		c-5.3-5.3-5.3-12-1.9-18.5c9.1-17.4,6.4-19.3-7.5-33.3l-240.7-240.7l0,0v0v0l92.7-92.7l240.6,240.6c14,14,15.9,16.7,33.2,7.6V613.4
		l-97.3,97.3l-39-39c47.7-61.2,52.2-139.8,16.5-211.7c-5.4-14.8-12.2-29.7-0.1-41.7c21.5-21.5,39.6,0.7,42.3,3.4l77.5,77.4V110.3
		h-398.2L2075.4,194.2z M1507.2,489.3c2.6-2.7,26.1-23.5,45.6-4c9.4,9.4,9.4,21.6,3.5,32.9c-16.2,31-11.5,34.3,13.4,59.2L1922.4,930
		c24.9,24.9,28.2,29.6,59.2,13.5c11.5-6.1,23.5-6,33,3.4v0c19.5,19.5-1.2,43-4,45.7l-190.1,190c-2.7,2.7-26.2,23.5-45.7,4
		c-9.5-9.4-9.6-21.5-3.5-33c16.1-30.8,11.4-34.3-13.5-59.2L1445.3,782l272.3,503.4l-19.5,19.4l-556.8-276.1
		c-13.5-6.8-26.9-13.6-41-16.9c-16.1-4.1-26.9-9.5-39,1.2c-8.7,7.4-28.2,24.2-44.4,8c-20.8-20.9-0.6-41,7.4-49.1l170.5-170.5
		l278.3,134.7l1.4-1.3l-144.8-268.4L1507.2,489.3z M1500.7,1815.2c-4.6-8.3-8.4-16.7-0.4-24.7c11.8-11.7,23.5,3.8,26.5,6.9
		l81.7,81.7c3,3,18.5,14.7,6.7,26.5c-7.9,8-16.2,4.2-24.6-0.4c-17.8-10.9-39.6-18.5-59.7-6.8l-23.5-23.5h0
		C1519.2,1854.9,1511.6,1833,1500.7,1815.2z M1539.7,1761.9c-6.5,6.4-12.1,4.5-19.7,0.7c-40.5-20.8-78.3-20-116.9,7.9l-21.9-21.9
		l84.4-84.3l76.8,76.8C1544.1,1742.9,1551,1750.5,1539.7,1761.9z M1258.2,1590.1l-348.5-348.6c-16.8-16.8-39.8-34.3-82.7-14.1
		l-39.1-39c155.1-129.6,336.7-81,470.6,52.9c133.9,133.9,182.5,315.4,52.9,470.6l-39-39h0
		C1292.6,1629.8,1275.1,1606.9,1258.2,1590.1z M1449.5,1340.9l-226.7-226.8l1.3-1.4l148.6,73.4l115.7,115.7v0
		c94.9,73.4,111.5,4.3,140.4,33.2c20.9,20.9-7.9,47-15.3,54.4l-76.6,76.5c-7.3,7.4-33.5,36.3-54.3,15.5
		C1453.7,1452.5,1522.9,1435.7,1449.5,1340.9z M1185.4,662.2c25.3-32.4,27.7-74,8.9-112c-2.8-7.8-6.4-15.7,0-22
		c11.4-11.4,21,0.4,22.4,1.8l71.1,71.1l-81.8,81.8L1185.4,662.2L1185.4,662.2z M1160.2,564.4c-7.5,7.5-15.3,3.9-23.1-0.4
		c-16.7-10.3-37.3-17.4-56.2-6.4l-22-22.1c11-18.8,3.9-39.5-6.4-56.2c-4.3-7.8-7.8-15.6-0.4-23.1c11-11,22.1,3.5,24.9,6.4l76.8,76.8
		C1156.6,542.3,1171.2,553.3,1160.2,564.4z M1019.4,337.5l72.2,72.2c1.8,1.8,8.2,8.9-2.5,19.5c-6.1,6-11.4,4.3-18.5,0.7
		c-38.1-19.5-73.6-18.9-109.9,7.5l-20.6-20.6L1019.4,337.5z M830.2,526.7L830.2,526.7l93.9-93.9l266,266l-93.9,93.9
		c-1.4,1.4-13.9,12.4-24.2,2.1c-5-5-5-11.4-1.8-17.4c8.5-16.4,6.1-18.1-7.1-31.3L876.8,559.7c-13.2-13.2-14.9-15.7-31.3-7.1
		c-6,3.2-12.4,3.2-17.4-1.8C817.7,540.5,828.7,528.1,830.2,526.7z M696,660.8l100.6-100.6c1.4-1.4,13.9-12.5,24.2-2.1
		c5,5,5,11.4,1.8,17.4c-8.5,16.3-6,18.1,7.1,31.3l186.3,186.3c13.2,13.2,14.9,15.6,31.3,7.1c6-3.2,12.4-3.2,17.4,1.8
		c10.3,10.3-0.7,22.7-2.1,24.2L962,926.8c-1.4,1.4-13.9,12.4-24.2,2.1c-5-5-5-11.4-1.8-17.4c8.5-16.4,6-18.1-7.1-31.3l-85-85
		l-31.3,31.3L792,805.9l31.3-31.3l-80.7-80.7c-13.2-13.2-14.9-15.7-31.3-7.1c-6,3.2-12.4,3.2-17.4-1.8
		C683.6,674.7,694.6,662.2,696,660.8z M561.6,795.2l100.6-100.6c1.4-1.4,13.9-12.5,24.2-2.1c5,5,5,11.4,1.8,17.4
		c-8.5,16.3-6,18.1,7.1,31.3l186.3,186.3h0c13.2,13.2,14.9,15.6,31.3,7.1c6-3.2,12.5-3.2,17.4,1.8c10.3,10.3-0.7,22.8-2.1,24.2
		l-100.6,100.6c-1.4,1.4-13.9,12.5-24.2,2.2c-5-5-5-11.4-1.8-17.4c8.5-16.3,6-18.1-7.1-31.3L608.2,828.3
		c-13.2-13.2-14.9-15.7-31.3-7.1c-6.1,3.2-12.4,3.2-17.4-1.8C549.2,809.1,560.2,796.7,561.6,795.2z M537.8,819.1l82.9,82.8
		c1.4,1.4,9.2,11.4-1.4,22c-10,10-21,2.5-29.9-4.3c-22.1-15.7-50.5-34.1-82.2-28.8l-20.6-20.6L537.8,819.1z M470.6,886.3
		l226.2,226.2c13.2,13.2,14.9,15.7,31.3,7.1c6-3.2,12.4-3.2,17.4,1.8c10.3,10.3-0.7,22.7-2.1,24.2l-100.6,100.6
		c-1.4,1.4-13.9,12.4-24.2,2.1c-5-4.9-5-11.4-1.8-17.4c8.5-16.4,6-18.1-7.1-31.3L383.4,973.4L470.6,886.3z M316.2,1040.6l51.2-51.2
		l20.6,20.6c-5.3,31.6,13.2,60.1,28.8,82.2c6.8,8.9,14.2,19.9,4.3,29.9c-10.7,10.7-20.6,2.9-22.1,1.4L316.2,1040.6z M1029.5,1973.7
		l-190.1,190c-2.7,2.7-26.2,23.5-45.7,4c-9.4-9.5-9.4-21.6-3.4-33c16.2-30.9,11.5-34.3-13.4-59.2L616,1914.7v0l-59.2,59.1l-38.9-39
		l59-59.1l-152.8-152.8c-24.8-24.9-28.2-29.5-59.1-13.5c-11.3,6.1-23.6,6-32.9-3.4c-19.5-19.5,1.3-42.9,4-45.7l190-190
		c2.7-2.7,26.1-23.5,45.6-4.1c9.4,9.5,9.5,21.6,3.4,33c-16.1,30.9-11.4,34.3,13.5,59.1L941.3,1911c24.9,24.9,28.2,29.7,59.2,13.4
		c11.4-6,23.5-5.9,32.9,3.5C1052.9,1947.5,1032.1,1971,1029.5,1973.7z M810.7,1689.1c-133.9-133.9-182.5-315.5-52.9-470.6l39,39v0
		c-20.2,43-2.6,65.8,14.2,82.6l348.6,348.6c16.8,16.8,39.7,34.3,82.7,14.2l39,39.1C1126.1,1871.5,944.6,1823,810.7,1689.1z
		 M1406.2,2289.6l-21.9-21.9c20.1-26.1-0.4-48.9-14.8-63.2l-161.1-161.2c-14.4-14.3-37.1-34.8-63.2-14.7l-22-21.9
		c63.6-65.1,161.9-74.2,264.1,19C1480.3,2110.2,1469,2226.8,1406.2,2289.6z M1547.2,2148.5c-1.5,1.5-14.8,13.2-25.7,2.3
		c-5.3-5.3-5.3-12.1-1.9-18.5c9.1-17.4,6.5-19.3-7.5-33.3l-198.2-198.2c-14-14-15.9-16.6-33.3-7.6c-6.4,3.5-13.3,3.5-18.6-1.8
		c-11-10.9,0.8-24.3,2.3-25.8h0l99.8-99.9l283,283L1547.2,2148.5z M1664.1,2031.6l-22-21.9h0c26.8-34.4,29.5-78.7,9.5-119.2
		c-3-8.3-6.9-16.6-0.1-23.4c12.2-12.1,22.4,0.4,23.9,1.9l75.7,75.7L1664.1,2031.6z M1884.7,1811.1l-107.1,107.1
		c-1.5,1.6-11.8,10.3-22.7-0.6c-5.3-5.3-6.2-11.3-2.8-17.7c9.1-17.4,4.3-17.2-9.6-31.2l-198.3-198.2l0,0c-14-14-15.9-16.6-33.3-7.6
		c-6.4,3.5-13.2,3.4-18.5-1.9c-10.9-10.9,0.8-24.2,2.3-25.7l99.9-99.8l240.7,240.7c14,13.9,15.9,16.6,33.3,7.5
		c6.5-3.4,13.3-3.4,18.6,1.9C1898,1796.3,1886.2,1809.6,1884.7,1811.1z M1858.9,1553.9c-5-5-9.7-10-14.3-15.2
		c7.5,19.8,8.7,41.3,2.6,65.4c-7.6,28-25,53-60.9,88.9l-21.9-21.9c18.1-26.6,3.8-43.2-14.7-61.8l-57.1-57.1
		c-17-17-36-29.1-59.1-12.1l-22-21.9l0,0l0,0l0,0c36-36,60.9-53.4,89-60.9c43.3-11,78.4,1.8,109.5,31.5
		c-33.8-63.6-34.2-135.7,19.3-199.8l22,22h0c-11.4,24.2-1.6,37,7.9,46.5l196,196c9.5,9.5,22.3,19.3,46.5,7.9l21.9,21.9
		C2036.3,1656.4,1934.1,1629.2,1858.9,1553.9z M2274,2214.4c34.9,0,64.7,27.1,64.7,63.9c0,37.1-29.8,64.2-64.7,64.2
		c-35.2,0-65.1-27.1-65.1-64.2C2208.9,2241.5,2238.7,2214.4,2274,2214.4z M2028.1,1145.5c-5.7,33.7,14,63.9,30.6,87.4
		c6.9,9.1,14.4,20.3,5.7,30.5c16.4,10.6,32.1,23.5,46.7,38.2c75.3,75.3,102.6,177.4,29.6,264.8l-22-22l0,0c11.3-24.2,1.5-37-8-46.5
		l-196-196c-9.5-9.5-22.3-19.3-46.5-8l-21.9-21.9c52.7-44.1,110.8-51.6,165.1-34.2l-59.8-59.8h0l54.5-54.5L2028.1,1145.5z
		 M2275.6,1030.5c1.5,1.5,9.8,12.1-1.5,23.4c-10.6,10.6-22.3,2.7-31.7-4.6c-23.5-16.6-53.8-36.2-87.4-30.5l-22-21.9l54.5-54.5
		L2275.6,1030.5L2275.6,1030.5z M2262.2,740.8l-177.3,177.3c-2.7,2.7-26.3,23.5-45.7,4c-9.4-9.4-9.4-21.6-3.4-33
		c16.1-30.9,11.5-34.3-13.5-59.2l-352.7-352.6c-24.9-24.8-28.2-29.6-59.2-13.4c-11.4,6-23.6,6-32.9-3.4c-19.5-19.4,1.4-43,4-45.7h0
		l177.2-177.2L2262.2,740.8z M2205.5,486.7c-14.1,14.2-28.9,7.3-43.8-0.7c-31.6-19.5-70.6-32.9-106.2-12.2l-41.7-41.7h0
		c20.8-35.6,7.3-74.6-12.3-106.2c-7.9-14.7-14.7-29.6-0.7-43.7c20.8-20.7,41.8,6.8,47.2,12.2l145.3,145.3
		C2198.7,445,2226.3,466,2205.5,486.7z"/>
</g>
</svg>
